<?xml version="1.0" encoding="UTF-8"?>
<svg id="_Шар_1" data-name="Шар 1" xmlns="http://www.w3.org/2000/svg" viewBox="0 0 1005 1005">
  <defs>
    <style>
      .cls-1 {
        fill: #a6c0c1;
      }

      .cls-1, .cls-2, .cls-3, .cls-4, .cls-5, .cls-6, .cls-7, .cls-8 {
        stroke: #fff;
        stroke-miterlimit: 10;
      }

      .cls-2 {
        fill: #7c999f;
      }

      .cls-3 {
        fill: #9ddae0;
      }

      .cls-4 {
        fill: #2bc0e1;
      }

      .cls-5 {
        fill: #1464ab;
      }

      .cls-6 {
        fill: #1c82c4;
      }

      .cls-7 {
        fill: #409dd6;
      }

      .cls-8 {
        fill: #4ec1be;
      }
    </style>
  </defs>
  <polygon class="cls-1" points="37.15 882.85 192.32 614.08 347.5 882.85 37.15 882.85"/>
  <polygon class="cls-3" points="347.29 883.21 502.46 614.45 657.64 883.21 347.29 883.21"/>
  <polygon class="cls-8" points="657.66 883.21 812.83 614.45 968 883.21 657.66 883.21"/>
  <polygon class="cls-2" points="503.01 614.87 347.84 883.64 192.66 614.87 503.01 614.87"/>
  <polygon class="cls-4" points="812.26 614.87 657.09 883.64 501.92 614.87 812.26 614.87"/>
  <polygon class="cls-7" points="812.77 614.57 502.43 614.57 657.6 345.8 812.77 614.57"/>
  <polygon class="cls-6" points="658.15 345.29 502.97 614.05 347.8 345.29 658.15 345.29"/>
  <polygon class="cls-5" points="658.15 345.27 347.8 345.27 502.97 76.5 658.15 345.27"/>
</svg>