<?xml version="1.0" standalone="no"?>
<!DOCTYPE svg PUBLIC "-//W3C//DTD SVG 20010904//EN"
 "http://www.w3.org/TR/2001/REC-SVG-20010904/DTD/svg10.dtd">
<svg version="1.0" xmlns="http://www.w3.org/2000/svg"
 width="560.000000pt" height="341.000000pt" viewBox="0 0 560.000000 341.000000"
 preserveAspectRatio="xMidYMid meet">

<g transform="translate(0.000000,341.000000) scale(0.100000,-0.100000)"
fill="#37bcdd8e" stroke="none">
<path d="M1040 3345 l0 -64 -62 -3 -63 -3 -3 -127 -3 -128 -54 0 -54 0 -3 63
-3 62 -70 0 -70 0 0 -70 0 -70 63 -3 62 -3 0 -54 0 -54 -127 -3 -128 -3 -3
-62 -3 -63 -59 0 -60 0 0 65 0 65 -65 0 -65 0 0 65 0 65 -70 0 -70 0 0 -65 0
-65 -65 0 -65 0 0 -75 0 -75 65 0 65 0 0 -65 0 -65 70 0 70 0 0 65 0 65 65 0
65 0 0 -65 0 -65 60 0 60 0 0 -65 0 -65 260 0 260 0 0 -60 0 -60 -195 0 -195
0 0 -65 0 -65 -65 0 -66 0 3 -67 3 -68 63 -3 62 -3 0 -64 0 -65 130 0 130 0 0
-60 0 -60 -65 0 -65 0 0 -65 0 -65 -65 0 -65 0 0 -70 0 -70 75 0 75 0 0 65 0
65 55 0 55 0 0 -130 0 -130 65 0 65 0 0 -65 0 -65 75 0 75 0 0 65 0 65 65 0
65 0 0 65 0 65 65 0 65 0 0 260 0 260 250 0 250 0 0 -65 0 -65 65 0 65 0 0
-65 0 -65 65 0 65 0 0 -65 0 -65 70 0 70 0 0 65 0 65 65 0 65 0 0 65 0 65 65
0 65 0 0 65 0 65 65 0 65 0 0 65 0 65 60 0 60 0 0 -65 0 -65 65 0 65 0 0 -65
0 -65 65 0 65 0 0 -65 0 -65 65 0 65 0 0 -65 0 -65 70 0 70 0 0 65 0 65 65 0
65 0 0 65 0 65 65 0 65 0 0 65 0 65 255 0 255 0 0 -260 0 -260 65 0 65 0 0
-65 0 -65 65 0 65 0 0 -65 0 -65 70 0 70 0 0 65 0 65 65 0 65 0 0 130 0 130
60 0 60 0 0 -65 0 -65 70 0 70 0 0 70 0 70 -65 0 -65 0 0 65 0 65 -65 0 -65 0
0 60 0 60 130 0 130 0 0 65 0 65 65 0 65 0 0 70 0 70 -65 0 -65 0 0 65 0 65
-195 0 -195 0 0 60 0 60 260 0 260 0 0 65 0 65 65 0 65 0 0 65 0 65 60 0 60 0
0 -65 0 -65 70 0 70 0 0 65 0 65 65 0 65 0 0 75 0 75 -65 0 -65 0 0 65 0 65
-70 0 -70 0 0 -65 0 -65 -65 0 -65 0 0 -65 0 -65 -60 0 -60 0 0 65 0 65 -130
0 -130 0 0 55 0 55 65 0 65 0 0 75 0 75 -70 0 -70 0 0 -65 0 -65 -60 0 -60 0
0 130 0 130 -65 0 -65 0 0 65 0 65 -70 0 -70 0 0 -65 0 -65 -65 0 -65 0 0
-260 0 -260 -60 0 -60 0 0 260 0 260 -65 0 -65 0 0 65 0 65 -70 0 -70 0 0 -65
0 -65 -65 0 -65 0 0 -130 0 -130 -65 0 -65 0 0 -65 0 -65 -130 0 -130 0 0 -65
0 -65 -65 0 -65 0 0 -75 0 -75 65 0 65 0 0 -65 0 -65 260 0 260 0 0 -125 0
-125 -130 0 -130 0 0 -65 0 -65 -65 0 -65 0 0 -65 0 -65 -65 0 -65 0 0 -65 0
-65 -60 0 -60 0 0 65 0 65 -65 0 -65 0 0 65 0 65 -65 0 -65 0 0 65 0 64 -62 3
-63 3 -3 63 -3 62 -69 0 -70 0 0 -65 0 -65 -65 0 -65 0 0 -65 0 -65 -65 0 -65
0 0 -65 0 -65 -65 0 -65 0 0 -65 0 -65 -60 0 -60 0 0 65 0 64 -62 3 -63 3 -3
62 -3 62 -62 3 -62 3 -3 63 -3 62 -124 0 -125 0 0 125 0 125 255 0 255 0 0 65
0 65 65 0 65 0 0 75 0 75 -65 0 -65 0 0 65 0 65 -130 0 -130 0 0 55 0 55 65 0
65 0 0 75 0 76 -67 -3 -68 -3 -3 -62 -3 -63 -54 0 -54 0 -3 128 -3 127 -62 3
-63 3 0 64 0 65 -75 0 -75 0 0 -65 0 -64 -62 -3 -63 -3 -3 -257 -2 -258 -55 0
-55 0 -2 258 -3 257 -62 3 -63 3 0 64 0 65 -75 0 -75 0 0 -65z m130 -10 l0
-65 65 0 65 0 2 -262 3 -263 70 0 70 0 3 263 2 262 60 0 59 0 3 63 3 62 58 3
57 3 0 -66 0 -65 65 0 65 0 0 -125 0 -125 -65 0 -65 0 0 -65 0 -65 -65 0 -66
0 3 -72 3 -73 62 -3 62 -3 3 -62 3 -62 70 0 70 0 3 63 3 62 59 0 60 0 0 65 0
65 125 0 124 0 3 -62 3 -63 63 -3 62 -3 0 -59 c0 -33 -3 -59 -7 -59 -5 1 -34
1 -65 0 l-58 -1 0 -65 0 -65 -260 0 -260 0 0 -195 0 -195 -130 0 -130 0 0
-260 0 -260 -65 0 -65 0 0 -65 0 -65 -65 0 -65 0 0 -65 0 -65 -55 0 -55 0 0
65 0 65 -65 0 -65 0 0 125 0 125 65 0 65 0 0 65 0 65 65 0 65 0 0 65 0 65 65
0 65 0 0 70 0 70 -65 0 -65 0 0 65 0 65 -75 0 -75 0 0 -65 0 -65 -65 0 -65 0
0 -65 0 -65 -120 0 -120 0 0 65 0 65 -65 0 -65 0 0 60 0 60 65 0 65 0 0 65 0
65 195 0 195 0 0 70 0 70 -260 0 -260 0 0 65 0 65 -57 1 c-32 1 -61 1 -65 0
-5 0 -8 26 -8 59 l0 59 63 3 62 3 3 63 3 62 119 0 119 0 3 -62 3 -63 62 -3 62
-3 3 -62 3 -62 70 0 70 0 3 62 3 62 62 3 62 3 0 70 0 70 -62 3 -62 3 -3 62 -3
62 -62 3 -63 3 0 124 0 125 65 0 65 0 0 65 0 65 55 0 55 0 0 -65z m2860 0 l0
-65 65 0 65 0 0 -265 0 -265 70 0 70 0 0 265 0 265 65 0 65 0 0 65 0 65 60 0
60 0 0 -65 0 -65 65 0 65 0 0 -125 0 -125 -65 0 -65 0 0 -65 0 -65 -65 0 -65
0 0 -75 0 -75 65 0 65 0 0 -65 0 -65 70 0 70 0 0 65 0 65 65 0 65 0 0 65 0 65
125 0 125 0 0 -65 0 -65 65 0 66 0 -3 -57 -3 -58 -62 -3 -62 -3 -3 -62 -3 -62
-257 -3 -258 -2 0 -70 0 -70 195 0 195 0 0 -65 0 -65 65 0 65 0 0 -60 0 -60
-65 0 -65 0 0 -65 0 -65 -125 0 -125 0 0 65 0 65 -65 0 -65 0 0 65 0 65 -70 0
-70 0 0 -65 0 -65 -65 0 -65 0 0 -70 0 -70 65 0 65 0 0 -65 0 -65 65 0 65 0 0
-65 0 -65 65 0 65 0 0 -125 0 -125 -65 0 -65 0 0 -65 0 -65 -60 0 -60 0 0 65
0 65 -65 0 -65 0 0 65 0 65 -65 0 -65 0 0 260 0 260 -130 0 -130 0 0 195 0
195 -257 2 -258 3 -3 62 -3 62 -62 3 -62 3 -3 58 -3 57 66 0 65 0 0 65 0 65
125 0 125 0 0 -65 0 -65 65 0 65 0 0 -65 0 -65 70 0 70 0 0 65 0 65 65 0 65 0
0 75 0 75 -65 0 -65 0 0 65 0 65 -65 0 -66 0 3 123 3 122 63 3 62 3 0 64 0 65
60 0 60 0 0 -65z m-3250 -260 l0 -55 -55 0 -55 0 0 55 0 55 55 0 55 0 0 -55z
m1300 0 l0 -55 -60 0 -60 0 0 55 0 55 60 0 60 0 0 -55z m2860 0 l0 -55 -60 0
-60 0 0 55 0 55 60 0 60 0 0 -55z m-4680 -130 l0 -55 -60 0 -60 0 0 55 0 55
60 0 60 0 0 -55z m650 0 l0 -55 -55 0 -55 0 0 55 0 55 55 0 55 0 0 -55z m130
0 l0 -55 -55 0 -55 0 0 55 0 55 55 0 55 0 0 -55z m780 0 l0 -55 -55 0 -55 0 0
55 0 55 55 0 55 0 0 -55z m130 0 l0 -55 -55 0 -55 0 0 55 0 55 55 0 55 0 0
-55z m1820 0 l0 -55 -60 0 -60 0 0 55 0 55 60 0 60 0 0 -55z m130 0 l0 -55
-60 0 -60 0 0 55 0 55 60 0 60 0 0 -55z m780 0 l0 -55 -60 0 -60 0 0 55 0 55
60 0 60 0 0 -55z m130 0 l0 -55 -60 0 -60 0 0 55 0 55 60 0 60 0 0 -55z m650
0 l0 -55 -60 0 -60 0 0 55 0 55 60 0 60 0 0 -55z m-5330 -134 l0 -58 -57 1
-58 1 -3 58 -3 57 61 0 60 0 0 -59z m130 0 l0 -58 -57 1 -58 1 -3 58 -3 57 61
0 60 0 0 -59z m130 -1 l0 -61 -57 3 -58 3 -3 58 -3 57 61 0 60 0 0 -60z m520
5 l0 -55 -55 0 -55 0 0 55 0 55 55 0 55 0 0 -55z m130 0 l0 -55 -55 0 -55 0 0
55 0 55 55 0 55 0 0 -55z m130 0 l0 -55 -55 0 -55 0 0 55 0 55 55 0 55 0 0
-55z m520 0 l0 -55 -60 0 -60 0 0 55 0 55 60 0 60 0 0 -55z m130 0 l0 -55 -55
0 -55 0 0 55 0 55 55 0 55 0 0 -55z m130 0 l0 -55 -55 0 -55 0 0 55 0 55 55 0
55 0 0 -55z m1820 0 l0 -55 -60 0 -60 0 0 55 0 55 60 0 60 0 0 -55z m130 0 l0
-55 -60 0 -60 0 0 55 0 55 60 0 60 0 0 -55z m130 0 l0 -55 -60 0 -60 0 0 55 0
55 60 0 60 0 0 -55z m520 0 l0 -55 -60 0 -60 0 0 55 0 55 60 0 60 0 0 -55z
m130 0 l0 -55 -60 0 -60 0 0 55 0 55 60 0 60 0 0 -55z m130 0 l0 -55 -60 0
-60 0 0 55 0 55 60 0 60 0 0 -55z m518 -2 l-3 -58 -57 -3 -58 -3 0 61 0 60 60
0 61 0 -3 -57z m130 0 l-3 -58 -57 -1 -58 -1 0 58 0 59 60 0 61 0 -3 -57z
m130 0 l-3 -58 -57 -1 -58 -1 0 58 0 59 60 0 61 0 -3 -57z m-5328 -132 l0 -58
-57 1 -58 1 -3 58 -3 57 61 0 60 0 0 -59z m780 0 l0 -58 -55 0 -55 0 0 58 0
59 55 0 55 0 0 -59z m780 0 l0 -58 -55 0 -55 0 0 58 0 59 55 0 55 0 0 -59z
m2080 0 l0 -58 -57 1 -58 1 -3 58 -3 57 61 0 60 0 0 -59z m780 5 c0 -58 -7
-66 -60 -66 -53 0 -60 8 -60 66 l0 54 60 0 60 0 0 -54z m778 -3 l-3 -58 -57
-1 -58 -1 0 58 0 59 60 0 61 0 -3 -57z m-2598 -393 l0 -61 -57 3 -58 3 -3 58
-3 57 61 0 60 0 0 -60z m-1690 -130 l0 -60 -55 0 -55 0 0 60 0 60 55 0 55 0 0
-60z m780 0 l0 -60 -120 0 -120 0 0 60 0 60 120 0 120 0 0 -60z m780 0 l0 -61
-57 3 -58 3 -3 58 -3 57 61 0 60 0 0 -60z m260 0 l0 -60 -60 0 -60 0 0 60 0
60 60 0 60 0 0 -60z m910 0 l0 -60 -125 0 -125 0 0 60 0 60 125 0 125 0 0 -60z
m650 0 l0 -60 -60 0 -60 0 0 60 0 60 60 0 60 0 0 -60z m-3510 -130 l0 -60 -55
0 -55 0 0 60 0 60 55 0 55 0 0 -60z m130 0 l0 -60 -55 0 -55 0 0 60 0 60 55 0
55 0 0 -60z m130 0 l0 -60 -55 0 -55 0 0 60 0 60 55 0 55 0 0 -60z m780 0 l0
-61 -57 3 -58 3 -3 58 -3 57 61 0 60 0 0 -60z m520 0 l0 -60 -60 0 -60 0 0 60
0 60 60 0 60 0 0 -60z m520 0 l0 -60 -60 0 -60 0 0 60 0 60 60 0 60 0 0 -60z
m520 0 l0 -60 -60 0 -60 0 0 60 0 60 60 0 60 0 0 -60z m780 0 l0 -60 -60 0
-60 0 0 60 0 60 60 0 60 0 0 -60z m130 0 l0 -60 -60 0 -60 0 0 60 0 60 60 0
60 0 0 -60z m130 0 l0 -60 -60 0 -60 0 0 60 0 60 60 0 60 0 0 -60z m-3640
-130 l0 -60 -55 0 -55 0 0 60 0 60 55 0 55 0 0 -60z m130 0 l0 -60 -55 0 -55
0 0 60 0 60 55 0 55 0 0 -60z m1040 0 l0 -60 -60 0 -60 0 0 60 0 60 60 0 60 0
0 -60z m260 0 l0 -60 -60 0 -60 0 0 60 0 60 60 0 60 0 0 -60z m780 0 l0 -60
-60 0 -60 0 0 60 0 60 60 0 60 0 0 -60z m260 0 l0 -60 -60 0 -60 0 0 60 0 60
60 0 60 0 0 -60z m1040 0 l0 -60 -60 0 -60 0 0 60 0 60 60 0 60 0 0 -60z m130
0 l0 -60 -60 0 -60 0 0 60 0 60 60 0 60 0 0 -60z m-3770 -130 l0 -60 -55 0
-55 0 0 60 0 60 55 0 55 0 0 -60z m130 0 l0 -60 -55 0 -55 0 0 60 0 60 55 0
55 0 0 -60z m1300 0 l0 -60 -60 0 -60 0 0 60 0 60 60 0 60 0 0 -60z m1040 0
l0 -60 -60 0 -60 0 0 60 0 60 60 0 60 0 0 -60z m1300 0 l0 -60 -60 0 -60 0 0
60 0 60 60 0 60 0 0 -60z m130 0 l0 -60 -60 0 -60 0 0 60 0 60 60 0 60 0 0
-60z m-4030 -130 l0 -60 -55 0 -55 0 0 60 0 60 55 0 55 0 0 -60z m4160 0 l0
-60 -60 0 -60 0 0 60 0 60 60 0 60 0 0 -60z"/>
<path d="M1300 2555 l0 -65 -65 0 -65 0 0 -70 0 -70 65 0 65 0 0 -65 0 -66 73
3 72 3 3 63 3 62 59 0 60 0 0 70 0 70 -60 0 -60 0 0 65 0 65 -75 0 -75 0 0
-65z m130 -10 l0 -65 65 0 65 0 0 -60 0 -60 -65 0 -65 0 0 -65 0 -65 -55 0
-55 0 0 65 0 65 -65 0 -65 0 0 60 0 60 65 0 65 0 0 65 0 65 55 0 55 0 0 -65z"/>
<path d="M4160 2555 l0 -65 -65 0 -65 0 0 -70 0 -70 65 0 65 0 0 -65 0 -65 70
0 70 0 0 65 0 65 65 0 65 0 0 70 0 69 -62 3 -63 3 -3 63 -3 62 -69 0 -70 0 0
-65z m130 -10 l0 -65 65 0 65 0 0 -60 0 -60 -65 0 -65 0 0 -65 0 -66 -57 3
-58 3 -3 62 -3 62 -62 3 -62 3 -3 58 -3 57 66 0 65 0 0 65 0 65 60 0 60 0 0
-65z"/>
<path d="M2730 1905 l0 -65 -65 0 -65 0 0 -70 0 -70 65 0 65 0 0 -60 0 -60
-585 0 -585 0 0 -65 0 -65 -65 0 -65 0 0 -200 0 -200 65 0 65 0 0 -65 0 -65
140 0 140 0 0 65 0 65 60 0 59 0 3 63 3 62 62 3 62 3 3 62 3 62 62 3 62 3 3
62 3 62 123 3 122 3 0 -61 0 -60 -65 0 -65 0 0 -65 0 -65 -65 0 -65 0 0 -65 0
-65 -65 0 -65 0 0 -65 0 -65 -65 0 -65 0 0 -70 0 -70 70 0 69 0 3 63 3 62 62
3 62 3 3 62 3 62 62 3 62 3 3 62 3 62 63 3 62 3 0 64 0 65 60 0 60 0 0 -125 0
-125 -65 0 -65 0 0 -65 0 -65 -65 0 -65 0 0 -65 0 -64 -62 -3 -63 -3 -3 -137
-3 -138 66 0 65 0 0 -65 0 -65 135 0 135 0 0 65 0 65 65 0 65 0 0 395 0 395
60 0 60 0 0 -395 0 -395 65 0 65 0 0 -65 0 -65 135 0 135 0 0 65 0 65 65 0 65
0 0 140 0 140 -65 0 -65 0 0 65 0 65 -65 0 -65 0 0 65 0 65 -65 0 -65 0 0 125
0 125 60 0 60 0 0 -65 0 -65 65 0 65 0 0 -65 0 -65 65 0 65 0 0 -65 0 -65 65
0 65 0 0 -65 0 -65 58 -1 c31 -1 60 -1 65 0 4 0 7 -31 7 -69 l0 -70 70 0 70 0
0 75 0 75 -65 0 -65 0 0 65 0 65 -65 0 -65 0 0 65 0 65 -65 0 -65 0 0 65 0 65
-65 0 -65 0 0 65 0 65 -65 0 -65 0 0 60 0 60 125 0 125 0 0 -65 0 -65 65 0 65
0 0 -65 0 -65 65 0 65 0 0 -65 0 -65 65 0 65 0 0 -65 0 -65 135 0 134 0 3 63
3 62 63 3 62 3 0 199 0 200 -65 0 -65 0 0 65 0 65 -585 0 -585 0 0 60 0 60 65
0 65 0 0 70 0 70 -65 0 -65 0 0 65 0 65 -70 0 -70 0 0 -65z m130 -5 l0 -60
-60 0 -60 0 0 60 0 60 60 0 60 0 0 -60z m-130 -130 l0 -60 -60 0 -60 0 0 60 0
60 60 0 60 0 0 -60z m130 0 l0 -60 -60 0 -60 0 0 60 0 60 60 0 60 0 0 -60z
m130 0 l0 -60 -60 0 -60 0 0 60 0 60 60 0 60 0 0 -60z m-130 -130 l0 -60 -60
0 -60 0 0 60 0 60 60 0 60 0 0 -60z m-130 -135 l0 -65 70 0 70 0 0 65 0 65
580 0 580 0 0 -65 0 -65 65 0 65 0 0 -190 0 -190 -65 0 -65 0 0 -65 0 -65
-125 0 -125 0 0 65 0 65 -65 0 -65 0 0 65 0 65 -65 0 -65 0 0 65 0 65 -65 0
-65 0 0 65 0 65 -135 0 -135 0 0 -65 0 -65 -65 0 -65 0 0 -135 0 -135 65 0 65
0 0 -65 0 -65 65 0 65 0 0 -65 0 -65 58 -1 c31 -1 60 -1 65 0 4 0 7 -55 7
-124 l0 -125 -65 0 -65 0 0 -65 0 -65 -125 0 -125 0 0 65 0 65 -65 0 -65 0 0
390 0 390 -70 0 -70 0 0 -390 0 -389 -62 -3 -63 -3 -3 -62 -3 -63 -124 0 -125
0 0 65 0 65 -65 0 -66 0 3 123 c2 88 6 122 16 123 6 1 34 2 62 3 l49 1 3 63 3
62 62 3 62 3 3 62 3 62 63 3 62 3 0 134 0 135 -65 0 -65 0 0 65 0 65 -135 0
-135 0 0 -65 0 -65 -65 0 -65 0 0 -65 0 -65 -65 0 -65 0 0 -65 0 -65 -65 0
-65 0 0 -65 0 -65 -125 0 -125 0 0 65 0 65 -60 0 -60 0 0 190 0 190 60 0 60 0
0 65 0 65 580 0 580 0 0 -65z m130 5 l0 -60 -60 0 -60 0 0 60 0 60 60 0 60 0
0 -60z m-390 -260 l0 -60 -60 0 -60 0 0 53 c0 30 3 57 7 60 3 4 30 7 60 7 l53
0 0 -60z m780 0 l0 -60 -60 0 -60 0 0 60 0 60 60 0 60 0 0 -60z m-910 -132 l0
-58 -60 0 -60 0 0 53 c0 30 3 57 7 61 4 4 31 6 60 5 l53 -2 0 -59z m1040 2 l0
-60 -60 0 -60 0 0 53 c0 30 3 57 7 60 3 4 30 7 60 7 l53 0 0 -60z m-1170 -130
l0 -60 -60 0 -60 0 0 53 c0 30 3 57 7 60 3 4 30 7 60 7 l53 0 0 -60z m1300 0
l0 -60 -60 0 -60 0 0 53 c0 30 3 57 7 60 3 4 30 7 60 7 l53 0 0 -60z m-1430
-130 l0 -60 -60 0 -60 0 0 53 c0 30 3 57 7 60 3 4 30 7 60 7 l53 0 0 -60z
m1560 0 l0 -60 -60 0 -60 0 0 53 c0 30 3 57 7 60 3 4 30 7 60 7 l53 0 0 -60z
m130 -132 l0 -58 -60 0 -60 0 0 53 c0 30 3 57 7 61 4 4 31 6 60 5 l53 -2 0
-59z"/>
<path d="M2730 345 l0 -64 -62 -3 -63 -3 0 -70 0 -70 63 -3 62 -3 0 -64 0 -65
70 0 70 0 0 65 0 65 65 0 65 0 0 75 0 75 -65 0 -65 0 0 65 0 65 -70 0 -70 0 0
-65z m130 -10 l0 -55 -60 0 -60 0 0 55 0 55 60 0 60 0 0 -55z m-130 -135 l0
-61 -57 3 -58 3 -3 58 -3 57 61 0 60 0 0 -60z m130 0 l0 -61 -57 3 -58 3 -3
58 -3 57 61 0 60 0 0 -60z m130 0 l0 -61 -57 3 -58 3 -3 58 -3 57 61 0 60 0 0
-60z m-130 -130 l0 -61 -57 3 -58 3 -3 58 -3 57 61 0 60 0 0 -60z"/>
</g>
</svg>
